name analog
datacolumns 19
datarows 41
range 0.7385 0.7585000000000001
endheader
time	ground_force_vx	ground_force_vy	ground_force_vz	ground_force_px	ground_force_py	ground_force_pz	l_ground_force_vx	l_ground_force_vy	l_ground_force_vz	l_ground_force_px	l_ground_force_py	l_ground_force_pz	ground_torque_x	ground_torque_y	ground_torque_z	l_ground_torque_x	l_ground_torque_y	l_ground_torque_z
0.7385	-0.0	-0.0	-0.0	2.3990793228149414	23.20681381225586	-247.56011962890625	-0.5102394819259644	-23.90761375427246	-245.802734375	-0.0	-0.0	-0.0	-0.0	-0.0	-0.0	68112.328125	-13458.0263671875	-341.99713134765625
0.739	-0.0	-0.0	-0.0	2.558945655822754	23.20676612854004	-247.52291870117188	-0.3825505375862121	-23.631498336791992	-245.3665313720703	-0.0	-0.0	-0.0	-0.0	-0.0	-0.0	67646.8828125	-13592.96484375	-314.0487365722656
0.7395	-0.0	-0.0	-0.0	2.103506326675415	22.915876388549805	-247.2073974609375	-0.1164337992668151	-23.675729751586918	-244.8643951416016	-0.0	-0.0	-0.0	-0.0	-0.0	-0.0	67710.90625	-13647.4404296875	-273.07281494140625
0.74	-0.0	-0.0	-0.0	2.108328104019165	23.36111831665039	-246.29595947265625	-0.0331291705369949	-23.730865478515625	-244.9530334472656	-0.0	-0.0	-0.0	-0.0	-0.0	-0.0	67875.0390625	-13551.9150390625	-195.113525390625
0.7405	-0.0	-0.0	-0.0	2.14105224609375	23.05211067199707	-247.57913208007807	0.4435539245605469	-23.614843368530277	-245.45358276367188	-0.0	-0.0	-0.0	-0.0	-0.0	-0.0	67876.875	-13558.42578125	-289.4852905273437
0.741	-0.0	-0.0	-0.0	2.258589506149292	23.291336059570312	-246.53634643554688	0.1444582939147949	-23.814037322998047	-245.6729888916016	-0.0	-0.0	-0.0	-0.0	-0.0	-0.0	68102.8515625	-13679.8720703125	-391.57855224609375
0.7415	-0.0	-0.0	-0.0	2.493735790252685	23.108943939208984	-246.87277221679688	-0.0557958558201789	-23.63744163513184	-246.3209228515625	-0.0	-0.0	-0.0	-0.0	-0.0	-0.0	68208.546875	-13433.1865234375	-321.3415832519531
0.742	-0.0	-0.0	-0.0	2.562856912612915	23.437183380126957	-245.97442626953125	-0.0607991106808185	-23.544193267822266	-247.0894775390625	-0.0	-0.0	-0.0	-0.0	-0.0	-0.0	68179.4296875	-13524.8095703125	-410.3227844238281
0.7425	-0.0	-0.0	-0.0	3.154712677001953	24.016210556030277	-246.841796875	-0.1214626356959343	-23.521425247192383	-246.83140563964844	-0.0	-0.0	-0.0	-0.0	-0.0	-0.0	68434.8515625	-13479.8017578125	-490.0415344238281
0.743	-0.0	-0.0	-0.0	3.426133632659912	23.701017379760746	-248.1728363037109	-0.5649682283401489	-23.58189010620117	-247.8059234619141	-0.0	-0.0	-0.0	-0.0	-0.0	-0.0	68664.84375	-13424.4453125	-618.4006958007812
0.7435	-0.0	-0.0	-0.0	3.3937907218933105	23.91160774230957	-247.91729736328125	-0.7983970642089844	-23.16354179382324	-247.1993408203125	-0.0	-0.0	-0.0	-0.0	-0.0	-0.0	68974.8125	-13201.7744140625	-798.0112915039062
0.744	-0.0	-0.0	-0.0	3.447082042694092	24.478761672973636	-247.1975555419922	-0.882655680179596	-23.29339408874512	-248.595947265625	-0.0	-0.0	-0.0	-0.0	-0.0	-0.0	68819.9140625	-13187.83984375	-835.6486206054688
0.7445	-0.0	-0.0	-0.0	3.1188559532165527	24.065208435058597	-247.2120513916016	-1.2613065242767334	-23.0476016998291	-247.89764404296875	-0.0	-0.0	-0.0	-0.0	-0.0	-0.0	68767.3203125	-13132.3974609375	-969.7921142578124
0.745	-0.0	-0.0	-0.0	2.832716941833496	24.007991790771484	-249.2447662353516	-1.41937255859375	-23.19639205932617	-246.96109008789065	-0.0	-0.0	-0.0	-0.0	-0.0	-0.0	68726.6796875	-12850.603515625	-996.6332397460938
0.7455	-0.0	-0.0	-0.0	2.497894287109375	24.033323287963867	-248.52525329589844	-1.5967941284179688	-22.81917762756348	-246.0409240722656	-0.0	-0.0	-0.0	-0.0	-0.0	-0.0	68510.21875	-12667.662109375	-1045.1732177734375
0.746	-0.0	-0.0	-0.0	1.9626312255859373	24.218061447143555	-248.184814453125	-1.681410312652588	-22.99172019958496	-246.7230682373047	-0.0	-0.0	-0.0	-0.0	-0.0	-0.0	68610.296875	-12690.671875	-1115.4058837890625
0.7465	-0.0	-0.0	-0.0	2.0200884342193604	24.22080993652344	-246.96255493164065	-1.802488923072815	-23.204328536987305	-246.2478485107422	-0.0	-0.0	-0.0	-0.0	-0.0	-0.0	68531.6640625	-12446.34765625	-1002.3953857421876
0.747	-0.0	-0.0	-0.0	1.6949996948242188	24.03647804260254	-246.9193878173828	-1.5401930809020996	-22.58217430114746	-244.9630584716797	-0.0	-0.0	-0.0	-0.0	-0.0	-0.0	68214.0546875	-12429.689453125	-1112.5904541015625
0.7475	-0.0	-0.0	-0.0	1.513677716255188	24.12559509277344	-246.7473907470703	-0.9078881740570068	-22.73436546325684	-246.02561950683597	-0.0	-0.0	-0.0	-0.0	-0.0	-0.0	68262.5234375	-12478.6435546875	-985.33349609375
0.748	-0.0	-0.0	-0.0	1.6030927896499634	23.976078033447266	-245.82391357421875	-0.8906716108322144	-22.86821937561035	-245.45358276367188	-0.0	-0.0	-0.0	-0.0	-0.0	-0.0	68472.921875	-12454.373046875	-904.6622314453124
0.7485	-0.0	-0.0	-0.0	1.9914919137954712	23.20011329650879	-245.44964599609372	-0.3194462656974792	-22.815275192260746	-245.3280334472656	-0.0	-0.0	-0.0	-0.0	-0.0	-0.0	68266.5625	-12404.20703125	-774.9493408203125
0.749	-0.0	-0.0	-0.0	2.4086837768554688	23.07992935180664	-246.42425537109372	0.0032926350831985	-22.783716201782227	-246.27691650390625	-0.0	-0.0	-0.0	-0.0	-0.0	-0.0	68444.8515625	-12581.466796875	-836.3778686523438
0.7495	-0.0	-0.0	-0.0	2.2881548404693604	23.35216522216797	-247.11135864257807	0.06346295773983	-22.638715744018555	-246.26402282714844	-0.0	-0.0	-0.0	-0.0	-0.0	-0.0	68521.6015625	-12596.802734375	-707.0313110351562
0.75	-0.0	-0.0	-0.0	2.7608814239501958	23.26303482055664	-246.64344787597656	0.3580350279808044	-22.850112915039062	-246.37628173828125	-0.0	-0.0	-0.0	-0.0	-0.0	-0.0	68776.2265625	-12757.0849609375	-618.9618530273438
0.7505000000000001	-0.0	-0.0	-0.0	2.917033672332764	23.23402976989746	-245.33673095703125	0.6870893836021423	-23.316925048828125	-247.4595489501953	-0.0	-0.0	-0.0	-0.0	-0.0	-0.0	69069.1171875	-12697.0419921875	-629.3779907226562
0.751	-0.0	-0.0	-0.0	3.2737832069396973	23.140783309936523	-248.53175354003903	0.8555909991264343	-23.40524673461914	-247.6380615234375	-0.0	-0.0	-0.0	-0.0	-0.0	-0.0	69029.3359375	-12884.7783203125	-569.9295654296875
0.7515000000000001	-0.0	-0.0	-0.0	3.0893118381500244	23.350175857543945	-248.1703948974609	0.4435539245605469	-23.46222686767578	-250.57823181152344	-0.0	-0.0	-0.0	-0.0	-0.0	-0.0	69405.1015625	-12591.4931640625	-549.1654663085938
0.752	-0.0	-0.0	-0.0	3.511925220489502	23.05387306213379	-249.81358337402344	0.4408933222293854	-23.40524673461914	-250.46507263183597	-0.0	-0.0	-0.0	-0.0	-0.0	-0.0	69714.71875	-12745.765625	-668.7213745117188
0.7525000000000001	-0.0	-0.0	-0.0	3.479209899902344	23.08135032653809	-249.67108154296875	0.383551150560379	-23.90917015075684	-252.44679260253903	-0.0	-0.0	-0.0	-0.0	-0.0	-0.0	70202.1796875	-12828.904296875	-667.1436767578125
0.753	-0.0	-0.0	-0.0	3.5099523067474365	23.02183723449707	-251.69558715820312	-0.115103080868721	-23.932804107666016	-254.4276428222656	-0.0	-0.0	-0.0	-0.0	-0.0	-0.0	70403.0546875	-12914.146484375	-669.18896484375
0.7535000000000001	-0.0	-0.0	-0.0	3.419250965118408	23.616647720336918	-252.2920379638672	-0.0023311376571655	-24.288463592529297	-255.823974609375	-0.0	-0.0	-0.0	-0.0	-0.0	-0.0	70975.0390625	-12791.2109375	-847.9512329101562
0.754	-0.0	-0.0	-0.0	2.766939640045166	23.261621475219727	-250.98947143554688	-0.0	-24.228822708129883	-256.7488098144531	-0.0	-0.0	-0.0	-0.0	-0.0	-0.0	71168.75	-12597.4404296875	-815.9508666992188
0.7545000000000001	-0.0	-0.0	-0.0	2.142261505126953	23.29234313964844	-251.82208251953125	-0.5590547323226929	-24.73007202148437	-257.7875366210937	-0.0	-0.0	-0.0	-0.0	-0.0	-0.0	71482.90625	-12626.6787109375	-836.5748901367188
0.755	-0.0	-0.0	-0.0	1.7243579626083374	23.91854858398437	-251.82179260253903	-0.9778308868408204	-24.52265167236328	-258.6076354980469	-0.0	-0.0	-0.0	-0.0	-0.0	-0.0	71871.1953125	-12494.0927734375	-847.8538818359375
0.7555000000000001	-0.0	-0.0	-0.0	1.5154856443405151	23.35216522216797	-252.39871215820312	-0.8003674149513245	-24.261638641357425	-260.9300842285156	-0.0	-0.0	-0.0	-0.0	-0.0	-0.0	71988.9609375	-12679.7783203125	-906.3212280273438
0.756	-0.0	-0.0	-0.0	0.7725653648376465	23.293336868286133	-250.28802490234372	-0.9178561568260192	-24.317317962646484	-259.5337219238281	-0.0	-0.0	-0.0	-0.0	-0.0	-0.0	71859.0625	-12474.0146484375	-1005.7156372070312
0.7565000000000001	-0.0	-0.0	-0.0	0.8037137985229492	22.938405990600582	-251.5775146484375	-0.9161120057106018	-24.64175033569336	-258.0230712890625	-0.0	-0.0	-0.0	-0.0	-0.0	-0.0	71853.09375	-12182.267578125	-984.1201782226562
0.757	-0.0	-0.0	-0.0	0.6853815317153931	23.233530044555664	-248.9869842529297	-0.7954071164131165	-24.906715393066406	-258.0230712890625	-0.0	-0.0	-0.0	-0.0	-0.0	-0.0	71450.15625	-12157.46484375	-1105.4613037109375
0.7575000000000001	-0.0	-0.0	-0.0	0.4750209450721741	23.32379913330078	-250.9939727783203	-0.6486034393310547	-24.702566146850582	-257.2045288085937	-0.0	-0.0	-0.0	-0.0	-0.0	-0.0	71262.984375	-11954.013671875	-1044.97705078125
0.758	-0.0	-0.0	-0.0	0.3278200626373291	23.32156181335449	-250.0535125732422	-0.9758186340332032	-24.731481552124023	-257.6794738769531	-0.0	-0.0	-0.0	-0.0	-0.0	-0.0	70979.203125	-12125.5634765625	-1084.611328125
0.7585000000000001	-0.0	-0.0	-0.0	0.4460525512695312	23.411365509033203	-250.2872772216797	-1.006197810173035	-24.46389961242676	-255.6937713623047	-0.0	-0.0	-0.0	-0.0	-0.0	-0.0	70741.3828125	-12053.060546875	-995.189697265625
